<?xml version="1.0" encoding="UTF-8" standalone="no"?>
<!DOCTYPE svg PUBLIC "-//W3C//DTD SVG 1.1//EN" "http://www.w3.org/Graphics/SVG/1.1/DTD/svg11.dtd">
<svg width="100%" height="100%" viewBox="0 0 240 240" version="1.1" xmlns="http://www.w3.org/2000/svg" xmlns:xlink="http://www.w3.org/1999/xlink" xml:space="preserve" xmlns:serif="http://www.serif.com/" style="fill-rule:evenodd;clip-rule:evenodd;stroke-linejoin:round;stroke-miterlimit:2;">
    <rect id="Offset" x="0" y="0" width="240" height="240" style="fill:none;"/>
    <g id="Offset1" serif:id="Offset">
        <g id="Offset2" serif:id="Offset" transform="matrix(1.62807,0,0,1.62807,-63.7,-82.8057)">
            <g>
                <g transform="matrix(1.08333,0,0,1.08333,11.6401,-255.908)">
                    <path d="M120.729,331.923C123.533,330.304 127.406,330.536 131.681,333.004C135.957,335.472 139.83,339.712 142.634,344.569C145.438,349.426 147.173,354.901 147.173,359.837C147.173,364.773 145.438,368.244 142.634,369.863L80.666,405.64C77.862,407.259 73.989,407.027 69.714,404.558C61.163,399.622 54.222,387.598 54.222,377.726C54.222,372.789 55.957,369.319 58.761,367.7L120.729,331.923ZM80.666,380.347L80.666,380.346L80.666,380.347L120.729,357.216L80.666,380.347Z" style="fill:url(#_Linear1);"/>
                </g>
                <g transform="matrix(1.04576,0.603772,-6.70322e-17,1.39435,-26.0382,-303.034)">
                    <ellipse cx="108.248" cy="287.346" rx="16.048" ry="13.898" style="fill:rgb(230,230,230);"/>
                </g>
                <g transform="matrix(0.973761,0.562201,-6.24169e-17,1.29835,-18.2441,-270.948)">
                    <ellipse cx="108.248" cy="287.346" rx="16.048" ry="13.898" style="fill:rgb(13,13,13);"/>
                </g>
                <g transform="matrix(0.491653,0.283856,-3.15143e-17,0.655537,33.943,-56.1083)">
                    <ellipse cx="108.248" cy="287.346" rx="16.048" ry="13.898" style="fill:rgb(51,51,51);"/>
                    <clipPath id="_clip2">
                        <ellipse cx="108.248" cy="287.346" rx="16.048" ry="13.898"/>
                    </clipPath>
                    <g clip-path="url(#_clip2)">
                        <g transform="matrix(0.88897,1.11022e-16,-4.93038e-32,0.88897,18.2227,26.5313)">
                            <ellipse cx="108.248" cy="287.346" rx="16.048" ry="13.898" style="fill:rgb(26,26,26);"/>
                        </g>
                    </g>
                </g>
            </g>
            <g>
                <g transform="matrix(1.10136,-0.63587,0.758621,0.43799,171.484,-254.811)">
                    <path d="M-301.699,390.091L-346.421,390.091L-346.421,402.496C-346.421,422.815 -359.688,443.339 -359.688,443.339L-314.966,443.339C-314.966,443.339 -301.699,422.684 -301.699,402.496L-301.699,390.091Z" style="fill:rgb(2,58,116);"/>
                </g>
                <g transform="matrix(1.10136,-0.63587,0.680218,0.392724,203.35,-239.284)">
                    <path d="M-301.699,390.091L-346.421,390.091L-346.421,424.551C-346.421,432.775 -348.778,441.971 -348.778,441.971L-304.056,441.971C-304.056,441.971 -301.699,432.775 -301.699,424.551L-301.699,390.091Z" style="fill:white;"/>
                </g>
                <g transform="matrix(0.708606,-0.409114,0.863131,0.498329,4.65344,-206.958)">
                    <rect x="-309.607" y="390.091" width="13.188" height="10.218" style="fill:rgb(0,24,75);"/>
                </g>
                <g transform="matrix(0.0879678,0,0,0.0382881,-313.896,114.85)">
                    <g transform="matrix(0.845314,-1.12129,0.845314,1.12129,4211.56,613.549)">
                        <g transform="matrix(168.097,0,0,168.097,330.651,357.951)">
                            <path d="M0.627,-0.005C0.624,0.002 0.574,0.003 0.524,0.003C0.481,0.003 0.452,0.002 0.437,0C0.43,-0.001 0.426,-0.002 0.425,-0.002C0.423,-0.003 0.421,-0.007 0.418,-0.012C0.413,-0.025 0.406,-0.044 0.396,-0.069C0.384,-0.101 0.364,-0.149 0.337,-0.213C0.331,-0.226 0.317,-0.234 0.304,-0.235C0.292,-0.235 0.272,-0.235 0.246,-0.233C0.239,-0.232 0.239,-0.225 0.239,-0.208C0.239,-0.186 0.241,-0.153 0.245,-0.109C0.249,-0.065 0.251,-0.032 0.251,-0.01C0.251,0.001 0.237,0.001 0.233,0.001C0.214,0.002 0.184,0.003 0.143,0.003C0.097,0.003 0.069,0.002 0.059,0C0.05,-0.002 0.045,-0.003 0.045,-0.011C0.045,-0.047 0.047,-0.105 0.05,-0.177C0.053,-0.25 0.055,-0.304 0.055,-0.34C0.055,-0.478 0.052,-0.585 0.046,-0.662L0.045,-0.669C0.045,-0.674 0.05,-0.678 0.061,-0.68C0.071,-0.682 0.121,-0.684 0.21,-0.686C0.27,-0.687 0.318,-0.688 0.354,-0.688C0.428,-0.688 0.491,-0.674 0.536,-0.638C0.588,-0.595 0.612,-0.545 0.615,-0.474C0.617,-0.427 0.607,-0.389 0.593,-0.36C0.58,-0.332 0.556,-0.305 0.519,-0.278C0.512,-0.273 0.506,-0.267 0.508,-0.263C0.508,-0.262 0.528,-0.223 0.567,-0.141C0.607,-0.059 0.631,-0.013 0.627,-0.005ZM0.416,-0.446C0.417,-0.487 0.408,-0.514 0.387,-0.527C0.366,-0.54 0.348,-0.546 0.306,-0.545C0.268,-0.545 0.238,-0.544 0.234,-0.534C0.23,-0.523 0.232,-0.493 0.232,-0.441C0.232,-0.405 0.231,-0.376 0.233,-0.368C0.235,-0.363 0.293,-0.362 0.315,-0.363C0.388,-0.367 0.415,-0.399 0.416,-0.446Z" style="fill:rgb(0,24,75);fill-rule:nonzero;"/>
                        </g>
                        <g transform="matrix(168.097,0,0,168.097,437.764,357.951)">
                            <path d="M0.688,-0.016C0.688,-0.007 0.684,-0.002 0.674,-0.002C0.668,-0.002 0.65,-0.006 0.62,-0.013C0.591,-0.02 0.573,-0.025 0.566,-0.028C0.498,-0.001 0.433,0.012 0.37,0.012C0.27,0.012 0.187,-0.021 0.123,-0.088C0.059,-0.154 0.027,-0.238 0.027,-0.339C0.027,-0.442 0.058,-0.528 0.12,-0.596C0.183,-0.666 0.266,-0.701 0.368,-0.701C0.418,-0.701 0.464,-0.692 0.508,-0.673C0.555,-0.652 0.592,-0.623 0.619,-0.585C0.625,-0.577 0.627,-0.572 0.627,-0.568C0.627,-0.558 0.613,-0.535 0.584,-0.498C0.555,-0.462 0.536,-0.444 0.527,-0.444C0.525,-0.444 0.518,-0.451 0.505,-0.464C0.489,-0.48 0.473,-0.492 0.456,-0.501C0.431,-0.514 0.404,-0.521 0.374,-0.521C0.325,-0.521 0.286,-0.503 0.258,-0.466C0.231,-0.433 0.218,-0.391 0.218,-0.341C0.218,-0.288 0.232,-0.246 0.259,-0.215C0.288,-0.183 0.328,-0.167 0.381,-0.167C0.414,-0.167 0.451,-0.175 0.492,-0.192C0.491,-0.203 0.488,-0.23 0.483,-0.274C0.479,-0.308 0.477,-0.335 0.477,-0.356C0.477,-0.362 0.479,-0.366 0.483,-0.367C0.485,-0.368 0.488,-0.368 0.491,-0.368C0.501,-0.368 0.515,-0.366 0.534,-0.365C0.56,-0.364 0.597,-0.363 0.624,-0.365C0.645,-0.366 0.66,-0.367 0.671,-0.367C0.679,-0.367 0.683,-0.362 0.683,-0.351C0.683,-0.335 0.682,-0.312 0.68,-0.28C0.679,-0.249 0.678,-0.225 0.678,-0.209C0.678,-0.167 0.681,-0.105 0.687,-0.021L0.688,-0.016Z" style="fill:rgb(0,24,75);fill-rule:nonzero;"/>
                        </g>
                        <g transform="matrix(168.097,0,0,168.097,557.271,357.951)">
                            <path d="M0.622,-0.211C0.622,-0.151 0.603,-0.101 0.566,-0.062C0.523,-0.017 0.448,0.006 0.341,0.006C0.333,0.006 0.279,0.005 0.271,0.005C0.151,0.005 0.08,0.003 0.057,-0.002C0.046,-0.004 0.043,-0.005 0.043,-0.017C0.043,-0.052 0.045,-0.105 0.049,-0.175C0.053,-0.246 0.055,-0.299 0.055,-0.334C0.055,-0.372 0.053,-0.443 0.049,-0.547C0.048,-0.574 0.047,-0.614 0.044,-0.667L0.043,-0.674C0.043,-0.68 0.048,-0.684 0.059,-0.685C0.069,-0.686 0.107,-0.687 0.172,-0.687C0.276,-0.687 0.336,-0.687 0.354,-0.686C0.434,-0.683 0.484,-0.678 0.531,-0.649C0.582,-0.618 0.608,-0.564 0.608,-0.505C0.608,-0.468 0.601,-0.45 0.589,-0.429C0.581,-0.414 0.57,-0.399 0.556,-0.383C0.544,-0.37 0.538,-0.366 0.538,-0.365C0.54,-0.359 0.548,-0.356 0.557,-0.35C0.575,-0.337 0.591,-0.32 0.604,-0.292C0.616,-0.267 0.622,-0.24 0.622,-0.211ZM0.412,-0.486C0.412,-0.514 0.397,-0.535 0.378,-0.543C0.359,-0.55 0.347,-0.551 0.312,-0.551C0.276,-0.551 0.246,-0.55 0.242,-0.545C0.237,-0.539 0.238,-0.511 0.238,-0.486C0.238,-0.453 0.238,-0.435 0.245,-0.429C0.251,-0.425 0.269,-0.426 0.307,-0.426C0.383,-0.425 0.412,-0.446 0.412,-0.486ZM0.427,-0.213C0.427,-0.242 0.417,-0.263 0.393,-0.274C0.377,-0.28 0.349,-0.282 0.314,-0.282C0.272,-0.282 0.249,-0.282 0.244,-0.278C0.239,-0.274 0.24,-0.255 0.24,-0.218C0.24,-0.179 0.242,-0.158 0.247,-0.154C0.251,-0.15 0.274,-0.148 0.317,-0.148C0.352,-0.148 0.377,-0.151 0.391,-0.156C0.415,-0.166 0.427,-0.185 0.427,-0.213Z" style="fill:rgb(0,24,75);fill-rule:nonzero;"/>
                        </g>
                    </g>
                    <g transform="matrix(11.9991,-15.9165,17.404,23.086,1840.78,-14194.3)">
                        <rect x="-342.557" y="408.453" width="26.183" height="1.952" style="fill:rgb(0,24,75);"/>
                    </g>
                    <g transform="matrix(11.9991,-15.9165,17.404,23.086,1898.51,-14117.7)">
                        <path d="M-316.373,408.453L-342.557,408.453L-342.557,409.054C-342.557,409.903 -342.855,410.46 -342.855,410.46L-316.672,410.46C-316.672,410.46 -316.373,409.823 -316.373,408.96L-316.373,408.453Z" style="fill:rgb(0,24,75);"/>
                    </g>
                </g>
            </g>
            <g>
                <g transform="matrix(1,0,0,1,0,-265.922)">
                    <path d="M120.729,331.923C123.533,330.304 127.406,330.536 131.681,333.004C135.957,335.472 139.83,339.712 142.634,344.569C145.438,349.426 147.173,354.901 147.173,359.837C147.173,364.773 145.438,368.244 142.634,369.863L80.666,405.64C77.862,407.259 73.989,407.027 69.714,404.558C61.163,399.622 54.222,387.598 54.222,377.726C54.222,372.789 55.957,369.319 58.761,367.7L120.729,331.923ZM80.666,380.347L80.666,380.346L80.666,380.347L120.729,357.216L80.666,380.347Z" style="fill:url(#_Linear3);"/>
                </g>
                <g transform="matrix(0.965321,0.557328,-6.18759e-17,1.28709,-34.78,-309.423)">
                    <ellipse cx="108.248" cy="287.346" rx="16.048" ry="13.898" style="fill:rgb(230,230,230);"/>
                </g>
                <g transform="matrix(0.897602,0.518231,-5.75352e-17,1.1968,-27.4496,-279.246)">
                    <ellipse cx="108.248" cy="287.346" rx="16.048" ry="13.898" style="fill:rgb(13,13,13);"/>
                </g>
                <g transform="matrix(0.48266,0.278664,-3.09379e-17,0.643547,17.4669,-94.3376)">
                    <ellipse cx="108.248" cy="287.346" rx="16.048" ry="13.898" style="fill:rgb(51,51,51);"/>
                    <clipPath id="_clip4">
                        <ellipse cx="108.248" cy="287.346" rx="16.048" ry="13.898"/>
                    </clipPath>
                    <g clip-path="url(#_clip4)">
                        <g transform="matrix(0.89834,-5.64327e-18,-3.57248e-32,0.89834,18.208,22.9732)">
                            <ellipse cx="108.248" cy="287.346" rx="16.048" ry="13.898" style="fill:rgb(26,26,26);"/>
                        </g>
                    </g>
                </g>
            </g>
        </g>
    </g>
    <g id="Capa1">
    </g>
    <defs>
        <linearGradient id="_Linear1" x1="0" y1="0" x2="1" y2="0" gradientUnits="userSpaceOnUse" gradientTransform="matrix(22.2488,38.5361,-22.2488,12.8454,94.6284,346.992)"><stop offset="0" style="stop-color:rgb(0,96,192);stop-opacity:1"/><stop offset="1" style="stop-color:rgb(0,51,102);stop-opacity:1"/></linearGradient>
        <linearGradient id="_Linear3" x1="0" y1="0" x2="1" y2="0" gradientUnits="userSpaceOnUse" gradientTransform="matrix(17.7289,30.7074,-21.9174,12.654,92.9516,347.96)"><stop offset="0" style="stop-color:rgb(242,242,242);stop-opacity:1"/><stop offset="1" style="stop-color:rgb(195,195,195);stop-opacity:1"/></linearGradient>
    </defs>
</svg>
