<?xml version="1.0" encoding="UTF-8" standalone="no"?>
<!DOCTYPE svg PUBLIC "-//W3C//DTD SVG 1.1//EN" "http://www.w3.org/Graphics/SVG/1.1/DTD/svg11.dtd">
<svg width="100%" height="100%" viewBox="0 0 400 260" version="1.1" xmlns="http://www.w3.org/2000/svg" xmlns:xlink="http://www.w3.org/1999/xlink" xml:space="preserve" xmlns:serif="http://www.serif.com/" style="fill-rule:evenodd;clip-rule:evenodd;stroke-linejoin:round;stroke-miterlimit:2;">
    <g transform="matrix(1,0,0,1,-100,-170.318)">
        <g transform="matrix(0.6,0,0,1,0,0)">
            <g transform="matrix(1.96175,0,0,0.512312,-9208.99,101.407)">
                <g transform="matrix(1.04998,0,0,2.41235,4424.16,-317.849)">
                    <g transform="matrix(168.097,0,0,168.097,330.651,357.951)">
                        <path d="M0.627,-0.005C0.624,0.002 0.574,0.003 0.524,0.003C0.481,0.003 0.452,0.002 0.437,0C0.43,-0.001 0.426,-0.002 0.425,-0.002C0.423,-0.003 0.421,-0.007 0.418,-0.012C0.413,-0.025 0.406,-0.044 0.396,-0.069C0.384,-0.101 0.364,-0.149 0.337,-0.213C0.331,-0.226 0.317,-0.234 0.304,-0.235C0.292,-0.235 0.272,-0.235 0.246,-0.233C0.239,-0.232 0.239,-0.225 0.239,-0.208C0.239,-0.186 0.241,-0.153 0.245,-0.109C0.249,-0.065 0.251,-0.032 0.251,-0.01C0.251,0.001 0.237,0.001 0.233,0.001C0.214,0.002 0.184,0.003 0.143,0.003C0.097,0.003 0.069,0.002 0.059,0C0.05,-0.002 0.045,-0.003 0.045,-0.011C0.045,-0.047 0.047,-0.105 0.05,-0.177C0.053,-0.25 0.055,-0.304 0.055,-0.34C0.055,-0.478 0.052,-0.585 0.046,-0.662L0.045,-0.669C0.045,-0.674 0.05,-0.678 0.061,-0.68C0.071,-0.682 0.121,-0.684 0.21,-0.686C0.27,-0.687 0.318,-0.688 0.354,-0.688C0.428,-0.688 0.491,-0.674 0.536,-0.638C0.588,-0.595 0.612,-0.545 0.615,-0.474C0.617,-0.427 0.607,-0.389 0.593,-0.36C0.58,-0.332 0.556,-0.305 0.519,-0.278C0.512,-0.273 0.506,-0.267 0.508,-0.263C0.508,-0.262 0.528,-0.223 0.567,-0.141C0.607,-0.059 0.631,-0.013 0.627,-0.005ZM0.416,-0.446C0.417,-0.487 0.408,-0.514 0.387,-0.527C0.366,-0.54 0.348,-0.546 0.306,-0.545C0.268,-0.545 0.238,-0.544 0.234,-0.534C0.23,-0.523 0.232,-0.493 0.232,-0.441C0.232,-0.405 0.231,-0.376 0.233,-0.368C0.235,-0.363 0.293,-0.362 0.315,-0.363C0.388,-0.367 0.415,-0.399 0.416,-0.446Z" style="fill:rgb(255,0,19);fill-rule:nonzero;"/>
                    </g>
                    <g transform="matrix(168.097,0,0,168.097,437.764,357.951)">
                        <path d="M0.688,-0.016C0.688,-0.007 0.684,-0.002 0.674,-0.002C0.668,-0.002 0.65,-0.006 0.62,-0.013C0.591,-0.02 0.573,-0.025 0.566,-0.028C0.498,-0.001 0.433,0.012 0.37,0.012C0.27,0.012 0.187,-0.021 0.123,-0.088C0.059,-0.154 0.027,-0.238 0.027,-0.339C0.027,-0.442 0.058,-0.528 0.12,-0.596C0.183,-0.666 0.266,-0.701 0.368,-0.701C0.418,-0.701 0.464,-0.692 0.508,-0.673C0.555,-0.652 0.592,-0.623 0.619,-0.585C0.625,-0.577 0.627,-0.572 0.627,-0.568C0.627,-0.558 0.613,-0.535 0.584,-0.498C0.555,-0.462 0.536,-0.444 0.527,-0.444C0.525,-0.444 0.518,-0.451 0.505,-0.464C0.489,-0.48 0.473,-0.492 0.456,-0.501C0.431,-0.514 0.404,-0.521 0.374,-0.521C0.325,-0.521 0.286,-0.503 0.258,-0.466C0.231,-0.433 0.218,-0.391 0.218,-0.341C0.218,-0.288 0.232,-0.246 0.259,-0.215C0.288,-0.183 0.328,-0.167 0.381,-0.167C0.414,-0.167 0.451,-0.175 0.492,-0.192C0.491,-0.203 0.488,-0.23 0.483,-0.274C0.479,-0.308 0.477,-0.335 0.477,-0.356C0.477,-0.362 0.479,-0.366 0.483,-0.367C0.485,-0.368 0.488,-0.368 0.491,-0.368C0.501,-0.368 0.515,-0.366 0.534,-0.365C0.56,-0.364 0.597,-0.363 0.624,-0.365C0.645,-0.366 0.66,-0.367 0.671,-0.367C0.679,-0.367 0.683,-0.362 0.683,-0.351C0.683,-0.335 0.682,-0.312 0.68,-0.28C0.679,-0.249 0.678,-0.225 0.678,-0.209C0.678,-0.167 0.681,-0.105 0.687,-0.021L0.688,-0.016Z" style="fill:rgb(4,189,72);fill-rule:nonzero;"/>
                    </g>
                    <g transform="matrix(168.097,0,0,168.097,557.271,357.951)">
                        <path d="M0.622,-0.211C0.622,-0.151 0.603,-0.101 0.566,-0.062C0.523,-0.017 0.448,0.006 0.341,0.006C0.333,0.006 0.279,0.005 0.271,0.005C0.151,0.005 0.08,0.003 0.057,-0.002C0.046,-0.004 0.043,-0.005 0.043,-0.017C0.043,-0.052 0.045,-0.105 0.049,-0.175C0.053,-0.246 0.055,-0.299 0.055,-0.334C0.055,-0.372 0.053,-0.443 0.049,-0.547C0.048,-0.574 0.047,-0.614 0.044,-0.667L0.043,-0.674C0.043,-0.68 0.048,-0.684 0.059,-0.685C0.069,-0.686 0.107,-0.687 0.172,-0.687C0.276,-0.687 0.336,-0.687 0.354,-0.686C0.434,-0.683 0.484,-0.678 0.531,-0.649C0.582,-0.618 0.608,-0.564 0.608,-0.505C0.608,-0.468 0.601,-0.45 0.589,-0.429C0.581,-0.414 0.57,-0.399 0.556,-0.383C0.544,-0.37 0.538,-0.366 0.538,-0.365C0.54,-0.359 0.548,-0.356 0.557,-0.35C0.575,-0.337 0.591,-0.32 0.604,-0.292C0.616,-0.267 0.622,-0.24 0.622,-0.211ZM0.412,-0.486C0.412,-0.514 0.397,-0.535 0.378,-0.543C0.359,-0.55 0.347,-0.551 0.312,-0.551C0.276,-0.551 0.246,-0.55 0.242,-0.545C0.237,-0.539 0.238,-0.511 0.238,-0.486C0.238,-0.453 0.238,-0.435 0.245,-0.429C0.251,-0.425 0.269,-0.426 0.307,-0.426C0.383,-0.425 0.412,-0.446 0.412,-0.486ZM0.427,-0.213C0.427,-0.242 0.417,-0.263 0.393,-0.274C0.377,-0.28 0.349,-0.282 0.314,-0.282C0.272,-0.282 0.249,-0.282 0.244,-0.278C0.239,-0.274 0.24,-0.255 0.24,-0.218C0.24,-0.179 0.242,-0.158 0.247,-0.154C0.251,-0.15 0.274,-0.148 0.317,-0.148C0.352,-0.148 0.377,-0.151 0.391,-0.156C0.415,-0.166 0.427,-0.185 0.427,-0.213Z" style="fill:rgb(0,96,192);fill-rule:nonzero;"/>
                    </g>
                </g>
                <g transform="matrix(0.217629,0,0,0.500008,4718.35,424.217)">
                    <g transform="matrix(182.217,0,0,182.217,350.342,430.524)">
                        <path d="M0.442,-0.636C0.435,-0.625 0.426,-0.609 0.415,-0.587C0.411,-0.577 0.405,-0.563 0.396,-0.544C0.394,-0.541 0.391,-0.54 0.388,-0.54C0.389,-0.54 0.373,-0.545 0.341,-0.557C0.309,-0.568 0.283,-0.574 0.263,-0.574C0.203,-0.574 0.173,-0.548 0.173,-0.495C0.173,-0.466 0.194,-0.44 0.236,-0.418C0.306,-0.382 0.346,-0.361 0.353,-0.355C0.395,-0.321 0.416,-0.276 0.416,-0.219C0.416,-0.146 0.387,-0.089 0.33,-0.047C0.278,-0.009 0.214,0.01 0.139,0.01C0.104,0.01 0.085,0.006 0.082,-0.002C0.081,-0.014 0.078,-0.032 0.073,-0.056C0.071,-0.066 0.067,-0.081 0.061,-0.1C0.06,-0.103 0.06,-0.106 0.06,-0.108C0.06,-0.113 0.062,-0.115 0.067,-0.115C0.075,-0.115 0.087,-0.114 0.103,-0.113C0.119,-0.111 0.131,-0.11 0.139,-0.11C0.24,-0.11 0.291,-0.143 0.291,-0.208C0.291,-0.24 0.27,-0.268 0.229,-0.291C0.155,-0.333 0.117,-0.355 0.116,-0.357C0.075,-0.39 0.054,-0.435 0.054,-0.491C0.054,-0.551 0.074,-0.6 0.114,-0.636C0.153,-0.671 0.203,-0.689 0.264,-0.689C0.29,-0.689 0.32,-0.685 0.354,-0.676C0.391,-0.667 0.418,-0.655 0.437,-0.642C0.439,-0.641 0.44,-0.639 0.442,-0.636Z" style="fill:rgb(26,26,26);fill-rule:nonzero;"/>
                    </g>
                    <g transform="matrix(182.217,0,0,182.217,435.4,430.524)">
                        <path d="M0.492,-0.238C0.492,-0.17 0.47,-0.112 0.425,-0.063C0.38,-0.014 0.323,0.011 0.256,0.011C0.188,0.011 0.132,-0.014 0.086,-0.063C0.041,-0.111 0.019,-0.169 0.019,-0.237C0.019,-0.305 0.041,-0.363 0.086,-0.411C0.132,-0.459 0.188,-0.484 0.256,-0.484C0.323,-0.484 0.379,-0.459 0.425,-0.411C0.47,-0.363 0.492,-0.306 0.492,-0.238ZM0.389,-0.237C0.389,-0.277 0.377,-0.31 0.353,-0.338C0.327,-0.368 0.295,-0.383 0.256,-0.383C0.217,-0.383 0.184,-0.368 0.159,-0.339C0.134,-0.311 0.122,-0.277 0.122,-0.237C0.122,-0.198 0.134,-0.164 0.159,-0.135C0.185,-0.105 0.217,-0.09 0.256,-0.09C0.295,-0.09 0.327,-0.105 0.353,-0.135C0.377,-0.164 0.389,-0.198 0.389,-0.237Z" style="fill:rgb(26,26,26);fill-rule:nonzero;"/>
                    </g>
                    <g transform="matrix(182.217,0,0,182.217,528.555,430.524)">
                        <path d="M0.173,-0.677L0.173,-0.671C0.166,-0.55 0.162,-0.446 0.162,-0.359C0.162,-0.32 0.163,-0.262 0.164,-0.185C0.165,-0.108 0.166,-0.05 0.166,-0.011C0.166,-0.004 0.163,0 0.158,0L0.065,0C0.059,0 0.056,-0.004 0.056,-0.011C0.056,-0.05 0.056,-0.108 0.057,-0.185C0.058,-0.262 0.058,-0.32 0.058,-0.359C0.058,-0.394 0.056,-0.447 0.053,-0.517C0.05,-0.588 0.048,-0.64 0.048,-0.675C0.048,-0.682 0.051,-0.685 0.058,-0.685C0.064,-0.685 0.073,-0.685 0.084,-0.684C0.096,-0.683 0.105,-0.682 0.111,-0.682C0.117,-0.682 0.126,-0.683 0.138,-0.684C0.15,-0.685 0.159,-0.685 0.165,-0.685C0.171,-0.685 0.174,-0.682 0.173,-0.677Z" style="fill:rgb(26,26,26);fill-rule:nonzero;"/>
                    </g>
                    <g transform="matrix(182.217,0,0,182.217,568.682,430.524)">
                        <path d="M0.502,-0.443C0.502,-0.419 0.501,-0.383 0.499,-0.335C0.497,-0.287 0.496,-0.251 0.496,-0.227C0.496,-0.203 0.497,-0.168 0.498,-0.12C0.5,-0.073 0.5,-0.037 0.5,-0.014C0.5,-0.007 0.497,-0.003 0.491,-0.001C0.489,0 0.456,0 0.392,0C0.388,0 0.386,-0.012 0.385,-0.037C0.384,-0.061 0.382,-0.073 0.379,-0.073C0.378,-0.073 0.375,-0.072 0.372,-0.069C0.318,-0.022 0.264,0.002 0.211,0.002C0.139,0.002 0.091,-0.024 0.068,-0.076C0.054,-0.108 0.047,-0.166 0.047,-0.25C0.047,-0.326 0.053,-0.389 0.065,-0.442C0.068,-0.455 0.073,-0.461 0.081,-0.461L0.166,-0.46C0.173,-0.46 0.176,-0.456 0.176,-0.449C0.176,-0.437 0.174,-0.415 0.169,-0.386C0.165,-0.354 0.162,-0.332 0.162,-0.319C0.161,-0.299 0.161,-0.278 0.161,-0.254C0.161,-0.197 0.165,-0.159 0.173,-0.14C0.187,-0.104 0.218,-0.087 0.266,-0.087C0.287,-0.087 0.311,-0.097 0.339,-0.117C0.368,-0.138 0.384,-0.159 0.385,-0.178C0.386,-0.203 0.387,-0.289 0.387,-0.436C0.387,-0.452 0.394,-0.46 0.407,-0.46L0.488,-0.46C0.497,-0.46 0.502,-0.454 0.502,-0.443Z" style="fill:rgb(26,26,26);fill-rule:nonzero;"/>
                    </g>
                    <g transform="matrix(182.217,0,0,182.217,669.222,430.524)">
                        <path d="M0.391,-0.443C0.391,-0.436 0.387,-0.42 0.379,-0.395C0.372,-0.37 0.367,-0.358 0.364,-0.358C0.349,-0.364 0.334,-0.371 0.32,-0.377C0.305,-0.384 0.289,-0.387 0.271,-0.387C0.231,-0.387 0.198,-0.372 0.171,-0.343C0.144,-0.313 0.131,-0.278 0.131,-0.238C0.131,-0.198 0.144,-0.164 0.171,-0.135C0.198,-0.105 0.232,-0.09 0.271,-0.09C0.293,-0.09 0.314,-0.095 0.335,-0.106C0.357,-0.117 0.366,-0.122 0.363,-0.122C0.368,-0.122 0.372,-0.108 0.377,-0.081C0.382,-0.056 0.385,-0.039 0.385,-0.03C0.385,-0.02 0.366,-0.01 0.328,0C0.296,0.008 0.272,0.012 0.257,0.012C0.19,0.012 0.133,-0.013 0.087,-0.063C0.042,-0.112 0.019,-0.17 0.019,-0.238C0.019,-0.307 0.041,-0.365 0.085,-0.414C0.131,-0.463 0.188,-0.488 0.256,-0.488C0.301,-0.488 0.343,-0.476 0.381,-0.453C0.387,-0.449 0.391,-0.446 0.391,-0.443Z" style="fill:rgb(26,26,26);fill-rule:nonzero;"/>
                    </g>
                    <g transform="matrix(182.217,0,0,182.217,742.447,430.524)">
                        <path d="M0.177,-0.584C0.177,-0.544 0.154,-0.524 0.11,-0.524C0.065,-0.524 0.042,-0.544 0.042,-0.584C0.042,-0.602 0.049,-0.617 0.063,-0.628C0.076,-0.639 0.092,-0.645 0.11,-0.645C0.128,-0.645 0.144,-0.639 0.157,-0.628C0.17,-0.617 0.177,-0.602 0.177,-0.584ZM0.173,-0.452C0.173,-0.427 0.172,-0.389 0.169,-0.338C0.166,-0.288 0.164,-0.25 0.164,-0.224C0.164,-0.2 0.165,-0.165 0.166,-0.117C0.167,-0.07 0.167,-0.035 0.167,-0.011C0.167,-0.004 0.164,-0.001 0.158,-0.001L0.063,-0.001C0.056,-0.001 0.053,-0.008 0.053,-0.021C0.053,-0.043 0.053,-0.077 0.054,-0.122C0.056,-0.167 0.056,-0.201 0.056,-0.224C0.056,-0.25 0.054,-0.288 0.051,-0.338C0.047,-0.389 0.045,-0.427 0.045,-0.453C0.045,-0.458 0.048,-0.461 0.055,-0.461C0.061,-0.461 0.07,-0.46 0.082,-0.458C0.094,-0.457 0.104,-0.456 0.11,-0.456C0.116,-0.456 0.125,-0.457 0.137,-0.458C0.15,-0.46 0.159,-0.461 0.165,-0.461C0.171,-0.461 0.173,-0.458 0.173,-0.452Z" style="fill:rgb(26,26,26);fill-rule:nonzero;"/>
                    </g>
                    <g transform="matrix(182.217,0,0,182.217,782.574,430.524)">
                        <path d="M0.492,-0.238C0.492,-0.17 0.47,-0.112 0.425,-0.063C0.38,-0.014 0.323,0.011 0.256,0.011C0.188,0.011 0.132,-0.014 0.086,-0.063C0.041,-0.111 0.019,-0.169 0.019,-0.237C0.019,-0.305 0.041,-0.363 0.086,-0.411C0.132,-0.459 0.188,-0.484 0.256,-0.484C0.323,-0.484 0.379,-0.459 0.425,-0.411C0.47,-0.363 0.492,-0.306 0.492,-0.238ZM0.389,-0.237C0.389,-0.277 0.377,-0.31 0.353,-0.338C0.327,-0.368 0.295,-0.383 0.256,-0.383C0.217,-0.383 0.184,-0.368 0.159,-0.339C0.134,-0.311 0.122,-0.277 0.122,-0.237C0.122,-0.198 0.134,-0.164 0.159,-0.135C0.185,-0.105 0.217,-0.09 0.256,-0.09C0.295,-0.09 0.327,-0.105 0.353,-0.135C0.377,-0.164 0.389,-0.198 0.389,-0.237Z" style="fill:rgb(26,26,26);fill-rule:nonzero;"/>
                    </g>
                    <g transform="matrix(182.217,0,0,182.217,875.729,430.524)">
                        <path d="M0.48,-0.01C0.48,-0.003 0.477,0.001 0.47,0.001L0.374,0C0.368,0 0.365,-0.005 0.365,-0.014C0.365,-0.03 0.366,-0.054 0.367,-0.087C0.368,-0.119 0.368,-0.144 0.368,-0.16C0.368,-0.173 0.368,-0.193 0.368,-0.219C0.367,-0.244 0.367,-0.264 0.367,-0.277C0.367,-0.314 0.362,-0.34 0.351,-0.355C0.338,-0.374 0.314,-0.383 0.279,-0.383C0.263,-0.383 0.24,-0.374 0.211,-0.355C0.18,-0.336 0.165,-0.319 0.165,-0.304L0.165,-0.011C0.165,-0.003 0.162,0.001 0.156,0.001L0.062,0C0.055,0 0.052,-0.004 0.052,-0.011C0.052,-0.037 0.052,-0.076 0.053,-0.127C0.054,-0.178 0.054,-0.217 0.054,-0.243C0.054,-0.313 0.047,-0.376 0.032,-0.435C0.031,-0.438 0.031,-0.44 0.031,-0.441C0.031,-0.445 0.033,-0.447 0.037,-0.448C0.039,-0.449 0.058,-0.452 0.093,-0.457C0.128,-0.463 0.146,-0.466 0.148,-0.466C0.15,-0.466 0.151,-0.463 0.152,-0.458C0.153,-0.438 0.157,-0.417 0.163,-0.397C0.18,-0.41 0.202,-0.427 0.23,-0.447C0.264,-0.468 0.297,-0.478 0.329,-0.478C0.39,-0.478 0.432,-0.46 0.455,-0.425C0.471,-0.399 0.479,-0.357 0.479,-0.298C0.479,-0.288 0.479,-0.273 0.479,-0.252C0.478,-0.231 0.478,-0.215 0.478,-0.205C0.478,-0.183 0.478,-0.151 0.479,-0.107C0.48,-0.064 0.48,-0.032 0.48,-0.01Z" style="fill:rgb(26,26,26);fill-rule:nonzero;"/>
                    </g>
                    <g transform="matrix(182.217,0,0,182.217,971.02,430.524)">
                        <path d="M0.463,-0.262C0.463,-0.238 0.453,-0.222 0.432,-0.214C0.418,-0.209 0.317,-0.199 0.13,-0.185C0.134,-0.156 0.15,-0.132 0.177,-0.112C0.203,-0.093 0.231,-0.083 0.261,-0.083C0.313,-0.083 0.36,-0.1 0.403,-0.133C0.408,-0.137 0.413,-0.141 0.418,-0.146C0.421,-0.146 0.423,-0.145 0.424,-0.145C0.424,-0.144 0.431,-0.133 0.442,-0.111C0.453,-0.089 0.459,-0.077 0.459,-0.075C0.459,-0.073 0.456,-0.069 0.451,-0.064C0.403,-0.013 0.342,0.012 0.267,0.012C0.192,0.012 0.131,-0.01 0.086,-0.055C0.042,-0.101 0.019,-0.161 0.019,-0.236C0.019,-0.303 0.041,-0.361 0.083,-0.411C0.129,-0.463 0.184,-0.489 0.25,-0.489C0.311,-0.489 0.362,-0.466 0.403,-0.421C0.443,-0.378 0.463,-0.325 0.463,-0.262ZM0.347,-0.292C0.347,-0.319 0.337,-0.343 0.315,-0.364C0.294,-0.385 0.27,-0.395 0.243,-0.395C0.213,-0.395 0.187,-0.383 0.163,-0.359C0.14,-0.335 0.128,-0.308 0.128,-0.278C0.128,-0.271 0.134,-0.268 0.146,-0.268C0.194,-0.268 0.252,-0.272 0.319,-0.282C0.338,-0.285 0.347,-0.288 0.347,-0.292Z" style="fill:rgb(26,26,26);fill-rule:nonzero;"/>
                    </g>
                    <g transform="matrix(182.217,0,0,182.217,1058.84,430.524)">
                        <path d="M0.278,-0.15C0.278,-0.102 0.259,-0.063 0.22,-0.034C0.185,-0.007 0.142,0.006 0.092,0.006C0.072,0.006 0.061,0.006 0.059,0.005C0.053,0.002 0.05,-0.006 0.05,-0.019C0.05,-0.026 0.049,-0.037 0.048,-0.051C0.046,-0.066 0.045,-0.076 0.045,-0.083C0.045,-0.087 0.048,-0.09 0.054,-0.091C0.058,-0.092 0.064,-0.092 0.072,-0.091C0.082,-0.09 0.087,-0.09 0.086,-0.09C0.148,-0.09 0.179,-0.109 0.179,-0.146C0.179,-0.164 0.165,-0.181 0.138,-0.196C0.094,-0.22 0.069,-0.235 0.063,-0.24C0.035,-0.263 0.022,-0.294 0.022,-0.331C0.022,-0.38 0.04,-0.418 0.077,-0.445C0.11,-0.47 0.152,-0.482 0.203,-0.482C0.208,-0.482 0.211,-0.48 0.213,-0.476C0.215,-0.471 0.219,-0.458 0.225,-0.436C0.231,-0.414 0.234,-0.401 0.234,-0.396C0.234,-0.392 0.231,-0.39 0.225,-0.389C0.204,-0.386 0.183,-0.383 0.162,-0.381C0.137,-0.374 0.125,-0.36 0.125,-0.34C0.125,-0.325 0.138,-0.31 0.164,-0.295C0.203,-0.274 0.228,-0.258 0.238,-0.248C0.265,-0.223 0.278,-0.19 0.278,-0.15Z" style="fill:rgb(26,26,26);fill-rule:nonzero;"/>
                    </g>
                    <g transform="matrix(182.217,0,0,182.217,1158.84,430.524)">
                        <path d="M0.648,-0.024C0.649,-0.017 0.645,-0.013 0.636,-0.013C0.631,-0.013 0.62,-0.018 0.601,-0.027C0.582,-0.036 0.57,-0.043 0.565,-0.047C0.505,-0.006 0.434,0.014 0.352,0.014C0.256,0.014 0.178,-0.022 0.116,-0.093C0.057,-0.161 0.028,-0.243 0.028,-0.341C0.028,-0.44 0.057,-0.524 0.114,-0.592C0.175,-0.663 0.254,-0.699 0.352,-0.699C0.402,-0.699 0.45,-0.687 0.497,-0.664C0.543,-0.64 0.58,-0.608 0.608,-0.567C0.612,-0.561 0.614,-0.556 0.614,-0.553C0.614,-0.548 0.603,-0.533 0.579,-0.508C0.556,-0.482 0.543,-0.469 0.539,-0.469C0.536,-0.469 0.527,-0.479 0.509,-0.499C0.488,-0.523 0.469,-0.542 0.45,-0.554C0.42,-0.574 0.389,-0.584 0.357,-0.584C0.295,-0.584 0.245,-0.558 0.206,-0.507C0.17,-0.46 0.152,-0.405 0.152,-0.341C0.152,-0.279 0.17,-0.224 0.207,-0.176C0.247,-0.124 0.297,-0.098 0.358,-0.098C0.417,-0.098 0.472,-0.114 0.522,-0.147C0.521,-0.156 0.519,-0.187 0.514,-0.24C0.51,-0.278 0.508,-0.308 0.508,-0.332C0.508,-0.338 0.511,-0.34 0.519,-0.34C0.525,-0.34 0.534,-0.34 0.546,-0.339C0.559,-0.338 0.568,-0.338 0.574,-0.338C0.58,-0.338 0.59,-0.338 0.603,-0.339C0.615,-0.34 0.625,-0.34 0.631,-0.34C0.638,-0.34 0.641,-0.335 0.641,-0.324C0.641,-0.313 0.641,-0.296 0.64,-0.273C0.639,-0.25 0.639,-0.233 0.639,-0.221C0.639,-0.174 0.642,-0.111 0.648,-0.031L0.648,-0.024Z" style="fill:rgb(26,26,26);fill-rule:nonzero;"/>
                    </g>
                    <g transform="matrix(182.217,0,0,182.217,1281.8,430.524)">
                        <path d="M0.329,-0.458C0.329,-0.423 0.327,-0.39 0.322,-0.361C0.321,-0.353 0.318,-0.35 0.312,-0.35C0.305,-0.35 0.295,-0.35 0.281,-0.352C0.267,-0.353 0.257,-0.354 0.25,-0.354C0.208,-0.354 0.182,-0.342 0.171,-0.319C0.164,-0.305 0.161,-0.276 0.161,-0.232L0.161,-0.178C0.161,-0.16 0.161,-0.132 0.163,-0.095C0.164,-0.058 0.165,-0.03 0.165,-0.012C0.165,-0.003 0.161,0.001 0.154,0.001L0.062,0C0.055,0 0.051,-0.004 0.051,-0.012C0.051,-0.039 0.051,-0.078 0.052,-0.131C0.053,-0.184 0.053,-0.224 0.053,-0.251C0.053,-0.331 0.046,-0.396 0.031,-0.445C0.03,-0.447 0.03,-0.449 0.03,-0.451C0.03,-0.455 0.032,-0.457 0.036,-0.459C0.048,-0.46 0.065,-0.462 0.087,-0.465C0.122,-0.471 0.138,-0.475 0.136,-0.475C0.141,-0.475 0.144,-0.465 0.146,-0.446C0.148,-0.427 0.151,-0.417 0.155,-0.417C0.155,-0.417 0.156,-0.417 0.157,-0.418C0.171,-0.426 0.184,-0.435 0.197,-0.443C0.212,-0.452 0.227,-0.459 0.242,-0.463C0.255,-0.467 0.271,-0.469 0.291,-0.469C0.316,-0.469 0.329,-0.465 0.329,-0.458Z" style="fill:rgb(26,26,26);fill-rule:nonzero;"/>
                    </g>
                    <g transform="matrix(182.217,0,0,182.217,1342.48,430.524)">
                        <path d="M0.524,-0.442C0.524,-0.441 0.524,-0.438 0.523,-0.433C0.51,-0.359 0.504,-0.294 0.504,-0.24C0.504,-0.237 0.508,-0.164 0.516,-0.021L0.517,-0.014C0.517,-0.005 0.513,0 0.504,0C0.495,0 0.481,0.001 0.463,0.003C0.445,0.005 0.432,0.006 0.423,0.006C0.417,0.006 0.412,-0.005 0.409,-0.028C0.405,-0.051 0.402,-0.062 0.399,-0.062C0.397,-0.062 0.389,-0.056 0.373,-0.043C0.354,-0.027 0.336,-0.015 0.319,-0.007C0.294,0.006 0.268,0.012 0.242,0.012C0.179,0.012 0.126,-0.013 0.083,-0.063C0.042,-0.112 0.021,-0.168 0.021,-0.232C0.021,-0.304 0.042,-0.364 0.083,-0.411C0.126,-0.46 0.183,-0.485 0.254,-0.485C0.304,-0.485 0.347,-0.468 0.384,-0.433C0.39,-0.427 0.398,-0.417 0.41,-0.405C0.411,-0.404 0.412,-0.403 0.413,-0.403C0.415,-0.403 0.418,-0.414 0.421,-0.434C0.425,-0.455 0.43,-0.465 0.435,-0.465C0.444,-0.465 0.46,-0.462 0.484,-0.458C0.511,-0.452 0.524,-0.446 0.524,-0.442ZM0.4,-0.238C0.4,-0.278 0.388,-0.312 0.364,-0.341C0.339,-0.372 0.307,-0.387 0.268,-0.387C0.229,-0.387 0.196,-0.372 0.17,-0.341C0.145,-0.312 0.133,-0.278 0.133,-0.238C0.133,-0.198 0.145,-0.164 0.17,-0.135C0.196,-0.105 0.229,-0.09 0.268,-0.09C0.306,-0.09 0.338,-0.105 0.364,-0.136C0.388,-0.165 0.4,-0.199 0.4,-0.238ZM0.438,-0.646C0.433,-0.632 0.397,-0.607 0.33,-0.571C0.264,-0.536 0.224,-0.518 0.208,-0.518C0.202,-0.518 0.197,-0.526 0.193,-0.542C0.19,-0.555 0.188,-0.566 0.188,-0.575C0.188,-0.578 0.191,-0.581 0.197,-0.584C0.251,-0.611 0.307,-0.646 0.364,-0.69C0.366,-0.691 0.368,-0.693 0.372,-0.694C0.373,-0.694 0.375,-0.692 0.378,-0.69C0.392,-0.678 0.41,-0.666 0.432,-0.652C0.434,-0.651 0.436,-0.649 0.438,-0.646Z" style="fill:rgb(26,26,26);fill-rule:nonzero;"/>
                    </g>
                    <g transform="matrix(182.217,0,0,182.217,1443.47,430.524)">
                        <path d="M0.463,-0.454C0.463,-0.428 0.462,-0.39 0.459,-0.339C0.456,-0.288 0.454,-0.25 0.454,-0.224C0.454,-0.2 0.455,-0.165 0.457,-0.118C0.458,-0.071 0.459,-0.036 0.459,-0.012C0.459,-0.005 0.456,-0.001 0.45,-0.001L0.357,-0.001C0.349,-0.001 0.345,-0.006 0.345,-0.017C0.345,-0.036 0.346,-0.065 0.347,-0.103C0.348,-0.141 0.349,-0.169 0.349,-0.188C0.349,-0.206 0.349,-0.233 0.349,-0.268C0.348,-0.304 0.348,-0.33 0.348,-0.348C0.348,-0.358 0.343,-0.363 0.333,-0.364C0.299,-0.363 0.248,-0.365 0.18,-0.367C0.18,-0.328 0.181,-0.27 0.184,-0.191C0.186,-0.112 0.187,-0.053 0.187,-0.013C0.187,-0.004 0.184,0 0.177,0L0.089,0C0.08,0 0.076,-0.005 0.076,-0.015L0.076,-0.352C0.076,-0.358 0.073,-0.361 0.066,-0.363C0.062,-0.364 0.056,-0.364 0.047,-0.363C0.035,-0.362 0.03,-0.362 0.031,-0.362C0.019,-0.362 0.013,-0.364 0.012,-0.367C0.01,-0.374 0.009,-0.401 0.009,-0.446C0.009,-0.451 0.018,-0.455 0.036,-0.457C0.048,-0.458 0.059,-0.458 0.071,-0.459C0.07,-0.484 0.069,-0.502 0.069,-0.515C0.069,-0.644 0.135,-0.708 0.266,-0.708C0.311,-0.708 0.355,-0.698 0.4,-0.677C0.405,-0.675 0.407,-0.672 0.407,-0.669C0.407,-0.66 0.405,-0.644 0.4,-0.621C0.394,-0.594 0.389,-0.581 0.384,-0.581C0.381,-0.581 0.367,-0.587 0.34,-0.598C0.313,-0.61 0.292,-0.615 0.277,-0.615C0.237,-0.615 0.209,-0.604 0.194,-0.583C0.181,-0.565 0.175,-0.535 0.175,-0.493C0.175,-0.483 0.175,-0.472 0.176,-0.461C0.194,-0.461 0.223,-0.46 0.263,-0.459C0.301,-0.458 0.33,-0.458 0.349,-0.458C0.372,-0.458 0.389,-0.458 0.401,-0.459C0.406,-0.459 0.415,-0.46 0.429,-0.462C0.44,-0.464 0.45,-0.464 0.456,-0.464C0.461,-0.464 0.463,-0.461 0.463,-0.454Z" style="fill:rgb(26,26,26);fill-rule:nonzero;"/>
                    </g>
                    <g transform="matrix(182.217,0,0,182.217,1536,430.524)">
                        <path d="M0.391,-0.443C0.391,-0.436 0.387,-0.42 0.379,-0.395C0.372,-0.37 0.367,-0.358 0.364,-0.358C0.349,-0.364 0.334,-0.371 0.32,-0.377C0.305,-0.384 0.289,-0.387 0.271,-0.387C0.231,-0.387 0.198,-0.372 0.171,-0.343C0.144,-0.313 0.131,-0.278 0.131,-0.238C0.131,-0.198 0.144,-0.164 0.171,-0.135C0.198,-0.105 0.232,-0.09 0.271,-0.09C0.293,-0.09 0.314,-0.095 0.335,-0.106C0.357,-0.117 0.366,-0.122 0.363,-0.122C0.368,-0.122 0.372,-0.108 0.377,-0.081C0.382,-0.056 0.385,-0.039 0.385,-0.03C0.385,-0.02 0.366,-0.01 0.328,0C0.296,0.008 0.272,0.012 0.257,0.012C0.19,0.012 0.133,-0.013 0.087,-0.063C0.042,-0.112 0.019,-0.17 0.019,-0.238C0.019,-0.307 0.041,-0.365 0.085,-0.414C0.131,-0.463 0.188,-0.488 0.256,-0.488C0.301,-0.488 0.343,-0.476 0.381,-0.453C0.387,-0.449 0.391,-0.446 0.391,-0.443Z" style="fill:rgb(26,26,26);fill-rule:nonzero;"/>
                    </g>
                    <g transform="matrix(182.217,0,0,182.217,1609.23,430.524)">
                        <path d="M0.524,-0.442C0.524,-0.441 0.524,-0.438 0.523,-0.433C0.51,-0.359 0.504,-0.294 0.504,-0.24C0.504,-0.237 0.508,-0.164 0.516,-0.021L0.517,-0.014C0.517,-0.005 0.513,0 0.504,0C0.495,0 0.481,0.001 0.463,0.003C0.445,0.005 0.432,0.006 0.423,0.006C0.417,0.006 0.412,-0.005 0.409,-0.028C0.405,-0.051 0.402,-0.062 0.399,-0.062C0.397,-0.062 0.389,-0.056 0.373,-0.043C0.354,-0.027 0.336,-0.015 0.319,-0.007C0.294,0.006 0.268,0.012 0.242,0.012C0.179,0.012 0.126,-0.013 0.083,-0.063C0.042,-0.112 0.021,-0.168 0.021,-0.232C0.021,-0.304 0.042,-0.364 0.083,-0.411C0.126,-0.46 0.183,-0.485 0.254,-0.485C0.304,-0.485 0.347,-0.468 0.384,-0.433C0.39,-0.427 0.398,-0.417 0.41,-0.405C0.411,-0.404 0.412,-0.403 0.413,-0.403C0.415,-0.403 0.418,-0.414 0.421,-0.434C0.425,-0.455 0.43,-0.465 0.435,-0.465C0.444,-0.465 0.46,-0.462 0.484,-0.458C0.511,-0.452 0.524,-0.446 0.524,-0.442ZM0.4,-0.238C0.4,-0.278 0.388,-0.312 0.364,-0.341C0.339,-0.372 0.307,-0.387 0.268,-0.387C0.229,-0.387 0.196,-0.372 0.17,-0.341C0.145,-0.312 0.133,-0.278 0.133,-0.238C0.133,-0.198 0.145,-0.164 0.17,-0.135C0.196,-0.105 0.229,-0.09 0.268,-0.09C0.306,-0.09 0.338,-0.105 0.364,-0.136C0.388,-0.165 0.4,-0.199 0.4,-0.238Z" style="fill:rgb(26,26,26);fill-rule:nonzero;"/>
                    </g>
                    <g transform="matrix(182.217,0,0,182.217,1710.21,430.524)">
                        <path d="M0.278,-0.15C0.278,-0.102 0.259,-0.063 0.22,-0.034C0.185,-0.007 0.142,0.006 0.092,0.006C0.072,0.006 0.061,0.006 0.059,0.005C0.053,0.002 0.05,-0.006 0.05,-0.019C0.05,-0.026 0.049,-0.037 0.048,-0.051C0.046,-0.066 0.045,-0.076 0.045,-0.083C0.045,-0.087 0.048,-0.09 0.054,-0.091C0.058,-0.092 0.064,-0.092 0.072,-0.091C0.082,-0.09 0.087,-0.09 0.086,-0.09C0.148,-0.09 0.179,-0.109 0.179,-0.146C0.179,-0.164 0.165,-0.181 0.138,-0.196C0.094,-0.22 0.069,-0.235 0.063,-0.24C0.035,-0.263 0.022,-0.294 0.022,-0.331C0.022,-0.38 0.04,-0.418 0.077,-0.445C0.11,-0.47 0.152,-0.482 0.203,-0.482C0.208,-0.482 0.211,-0.48 0.213,-0.476C0.215,-0.471 0.219,-0.458 0.225,-0.436C0.231,-0.414 0.234,-0.401 0.234,-0.396C0.234,-0.392 0.231,-0.39 0.225,-0.389C0.204,-0.386 0.183,-0.383 0.162,-0.381C0.137,-0.374 0.125,-0.36 0.125,-0.34C0.125,-0.325 0.138,-0.31 0.164,-0.295C0.203,-0.274 0.228,-0.258 0.238,-0.248C0.265,-0.223 0.278,-0.19 0.278,-0.15Z" style="fill:rgb(26,26,26);fill-rule:nonzero;"/>
                    </g>
                </g>
                <g transform="matrix(0.573921,0,0,1.49652,1976.66,-897.336)">
                    <path d="M5231.36,692.792C5231.36,690.974 5229.69,689.498 5227.62,689.498L4886.96,689.498C4884.9,689.498 4883.22,690.974 4883.22,692.792L4883.22,755.599C4883.22,757.417 4884.9,758.893 4886.96,758.893L5227.62,758.893C5229.69,758.893 5231.36,757.417 5231.36,755.599L5231.36,692.792Z" style="fill:rgb(26,26,26);"/>
                </g>
                <g transform="matrix(0.171429,0,0,0.393861,4071.44,-298.113)">
                    <g transform="matrix(209.371,0,0,209.371,4195.05,1303.55)">
                        <rect x="0.086" y="-0.7" width="0.12" height="0.7" style="fill:white;fill-rule:nonzero;"/>
                    </g>
                    <g transform="matrix(209.371,0,0,209.371,4256.09,1303.55)">
                        <path d="M0.838,0L0.723,0L0.723,-0.453C0.723,-0.49 0.725,-0.536 0.73,-0.589L0.728,-0.589C0.721,-0.559 0.715,-0.537 0.709,-0.523L0.5,0L0.42,0L0.21,-0.52C0.205,-0.535 0.198,-0.558 0.192,-0.589L0.19,-0.589C0.193,-0.561 0.194,-0.516 0.194,-0.452L0.194,0L0.086,0L0.086,-0.7L0.25,-0.7L0.434,-0.234C0.448,-0.198 0.457,-0.171 0.461,-0.154L0.464,-0.154C0.476,-0.191 0.486,-0.218 0.493,-0.236L0.681,-0.7L0.838,-0.7L0.838,0Z" style="fill:white;fill-rule:nonzero;"/>
                    </g>
                    <g transform="matrix(209.371,0,0,209.371,4449.61,1303.55)">
                        <path d="M0.202,-0.254L0.202,0L0.086,0L0.086,-0.7L0.299,-0.7C0.379,-0.7 0.442,-0.681 0.486,-0.644C0.53,-0.607 0.552,-0.554 0.552,-0.486C0.552,-0.418 0.529,-0.362 0.483,-0.319C0.437,-0.276 0.374,-0.254 0.295,-0.254L0.202,-0.254ZM0.202,-0.604L0.202,-0.349L0.277,-0.349C0.327,-0.349 0.365,-0.36 0.391,-0.383C0.417,-0.406 0.43,-0.439 0.43,-0.481C0.43,-0.563 0.382,-0.604 0.287,-0.604L0.202,-0.604Z" style="fill:white;fill-rule:nonzero;"/>
                    </g>
                    <g transform="matrix(209.371,0,0,209.371,4571.98,1303.55)">
                        <path d="M0.627,0L0.492,0L0.38,-0.188C0.37,-0.205 0.36,-0.219 0.35,-0.232C0.341,-0.244 0.331,-0.254 0.321,-0.262C0.311,-0.27 0.3,-0.275 0.289,-0.279C0.277,-0.282 0.264,-0.284 0.249,-0.284L0.202,-0.284L0.202,0L0.086,0L0.086,-0.7L0.317,-0.7C0.35,-0.7 0.38,-0.696 0.408,-0.688C0.435,-0.681 0.459,-0.669 0.48,-0.653C0.5,-0.637 0.517,-0.618 0.528,-0.594C0.54,-0.57 0.545,-0.543 0.545,-0.511C0.545,-0.486 0.542,-0.464 0.534,-0.443C0.527,-0.422 0.517,-0.404 0.503,-0.388C0.49,-0.372 0.473,-0.358 0.454,-0.347C0.435,-0.335 0.414,-0.326 0.39,-0.32L0.39,-0.318C0.403,-0.311 0.414,-0.303 0.423,-0.295C0.433,-0.286 0.442,-0.277 0.45,-0.268C0.459,-0.259 0.467,-0.249 0.475,-0.237C0.484,-0.226 0.493,-0.212 0.503,-0.197L0.627,0ZM0.202,-0.606L0.202,-0.378L0.299,-0.378C0.317,-0.378 0.333,-0.381 0.348,-0.387C0.364,-0.392 0.377,-0.4 0.388,-0.411C0.399,-0.421 0.407,-0.434 0.414,-0.449C0.42,-0.464 0.423,-0.48 0.423,-0.499C0.423,-0.533 0.412,-0.559 0.391,-0.578C0.37,-0.597 0.34,-0.606 0.3,-0.606L0.202,-0.606Z" style="fill:white;fill-rule:nonzero;"/>
                    </g>
                    <g transform="matrix(209.371,0,0,209.371,4702.33,1303.55)">
                        <path d="M0.479,0L0.086,0L0.086,-0.7L0.464,-0.7L0.464,-0.602L0.203,-0.602L0.203,-0.403L0.443,-0.403L0.443,-0.305L0.203,-0.305L0.203,-0.098L0.479,-0.098L0.479,0Z" style="fill:white;fill-rule:nonzero;"/>
                    </g>
                    <g transform="matrix(209.371,0,0,209.371,4810.69,1303.55)">
                        <path d="M0.68,0L0.553,0L0.219,-0.515C0.21,-0.528 0.203,-0.541 0.198,-0.555L0.195,-0.555C0.197,-0.54 0.199,-0.508 0.199,-0.459L0.199,0L0.086,0L0.086,-0.7L0.222,-0.7L0.545,-0.198C0.559,-0.177 0.567,-0.163 0.571,-0.155L0.573,-0.155C0.57,-0.173 0.568,-0.205 0.568,-0.249L0.568,-0.7L0.68,-0.7L0.68,0Z" style="fill:white;fill-rule:nonzero;"/>
                    </g>
                    <g transform="matrix(209.371,0,0,209.371,4971.3,1303.55)">
                        <path d="M0.536,-0.602L0.334,-0.602L0.334,0L0.218,0L0.218,-0.602L0.018,-0.602L0.018,-0.7L0.536,-0.7L0.536,-0.602Z" style="fill:white;fill-rule:nonzero;"/>
                    </g>
                    <g transform="matrix(209.371,0,0,209.371,5071.59,1303.55)">
                        <path d="M0.662,0L0.534,0L0.471,-0.178L0.196,-0.178L0.135,0L0.008,0L0.271,-0.7L0.401,-0.7L0.662,0ZM0.44,-0.273L0.343,-0.552C0.34,-0.561 0.337,-0.576 0.334,-0.596L0.332,-0.596C0.329,-0.578 0.326,-0.563 0.322,-0.552L0.226,-0.273L0.44,-0.273Z" style="fill:white;fill-rule:nonzero;"/>
                    </g>
                </g>
            </g>
        </g>
    </g>
</svg>
